<svg xmlns="http://www.w3.org/2000/svg" width="21.128" height="21.128" viewBox="0 0 21.128 21.128">
  <path id="Icon_awesome-linkedin" data-name="Icon awesome-linkedin" d="M19.619,2.25H1.5A1.516,1.516,0,0,0,0,3.773V21.855a1.516,1.516,0,0,0,1.5,1.523H19.619a1.52,1.52,0,0,0,1.509-1.523V3.773A1.52,1.52,0,0,0,19.619,2.25ZM6.386,20.36H3.254V10.277H6.39V20.36ZM4.82,8.9A1.816,1.816,0,1,1,6.636,7.084,1.816,1.816,0,0,1,4.82,8.9Zm13.3,11.46H14.993v-4.9c0-1.17-.024-2.674-1.627-2.674-1.632,0-1.882,1.273-1.882,2.589v4.99H8.352V10.277h3v1.377H11.4a3.3,3.3,0,0,1,2.966-1.627c3.169,0,3.759,2.089,3.759,4.806Z" transform="translate(0 -2.25)" fill="#333"/>
</svg>