<svg xmlns="http://www.w3.org/2000/svg" width="20.836" height="20.836" viewBox="0 0 20.836 20.836">
  <path id="Icon_awesome-twitter-square" data-name="Icon awesome-twitter-square" d="M18.6,2.25H2.232A2.233,2.233,0,0,0,0,4.482V20.854a2.233,2.233,0,0,0,2.232,2.232H18.6a2.233,2.233,0,0,0,2.232-2.232V4.482A2.233,2.233,0,0,0,18.6,2.25ZM16.329,9.636c.009.13.009.265.009.4A8.619,8.619,0,0,1,7.66,18.71a8.639,8.639,0,0,1-4.683-1.367,6.426,6.426,0,0,0,.735.037,6.116,6.116,0,0,0,3.786-1.3,3.054,3.054,0,0,1-2.851-2.116,3.288,3.288,0,0,0,1.377-.056,3.051,3.051,0,0,1-2.442-3v-.037a3.048,3.048,0,0,0,1.377.386A3.044,3.044,0,0,1,3.6,8.719,3.012,3.012,0,0,1,4.014,7.18,8.661,8.661,0,0,0,10.3,10.37a3.057,3.057,0,0,1,5.2-2.786,5.977,5.977,0,0,0,1.935-.735A3.042,3.042,0,0,1,16.1,8.529a6.07,6.07,0,0,0,1.758-.474A6.421,6.421,0,0,1,16.329,9.636Z" transform="translate(0 -2.25)" fill="#333"/>
</svg>